<?xml version="1.0" encoding="utf-8"?>
<!-- Svg Vector Icons : http://www.onlinewebfonts.com/icon -->
<!DOCTYPE svg PUBLIC "-//W3C//DTD SVG 1.1//EN" "http://www.w3.org/Graphics/SVG/1.1/DTD/svg11.dtd">
<svg version="1.1" xmlns="http://www.w3.org/2000/svg" xmlns:xlink="http://www.w3.org/1999/xlink" x="0px" y="0px" viewBox="0 0 1000 1000" enable-background="new 0 0 1000 1000" xml:space="preserve">
<metadata> Svg Vector Icons : http://www.onlinewebfonts.com/icon </metadata>
<g><path d="M500,301.1c-109.7,0-198.9,89.2-198.9,198.9c0,109.7,89.2,198.9,198.9,198.9c109.7,0,198.9-89.2,198.9-198.9C698.9,390.3,609.7,301.1,500,301.1z M500,653.5c-84.6,0-153.5-68.9-153.5-153.5c0-84.6,68.9-153.5,153.5-153.5c84.6,0,153.5,68.9,153.5,153.5C653.5,584.6,584.6,653.5,500,653.5z"/><path d="M903.8,363.9h-43.9c-2.8-7.6-5.9-15-9.1-22.2l31-31c16.3-16.3,25.3-37.9,25.3-61c0-23-9-44.7-25.3-61l-70.6-70.6c-16.3-16.3-37.9-25.2-61-25.2c-23,0-44.7,9-61,25.2l-31,31c-7.3-3.3-14.7-6.4-22.2-9.2V96.2c0-47.5-38.7-86.2-86.2-86.2h-99.8c-47.5,0-86.2,38.7-86.2,86.2v43.9c-7.6,2.8-15,5.9-22.2,9.1l-31-31c-16.3-16.3-37.9-25.2-61-25.2c-23,0-44.7,9-61,25.2l-70.6,70.6c-16.3,16.3-25.3,37.9-25.3,61c0,23,9,44.7,25.3,61l31,31c-3.2,7.2-6.3,14.6-9.1,22.2H96.2c-47.5,0-86.2,38.7-86.2,86.2v99.8c0,47.5,38.7,86.2,86.2,86.2h43.9c2.8,7.6,5.9,15,9.1,22.2l-31,31c-16.3,16.3-25.3,37.9-25.3,61c0,23,9,44.7,25.3,61l70.6,70.6c16.3,16.3,37.9,25.3,61,25.3c23,0,44.7-9,61-25.3l31-31c7.3,3.3,14.7,6.4,22.2,9.2v43.8c0,47.5,38.7,86.2,86.2,86.2h99.8c47.5,0,86.2-38.7,86.2-86.2v-43.9c7.6-2.8,15-5.9,22.2-9.1l31,31c16.3,16.3,37.9,25.3,61,25.3c23,0,44.7-9,61-25.3l70.6-70.6c16.3-16.3,25.3-37.9,25.3-61c0-23-9-44.7-25.3-61l-31-31c3.2-7.2,6.3-14.6,9.1-22.2h43.9c47.5,0,86.2-38.7,86.2-86.2v-99.8C990,402.6,951.3,363.9,903.8,363.9z M944.6,549.9c0,22.5-18.3,40.8-40.8,40.8h-76.3l-5.1,15.6c-5.4,16.5-11.9,32.1-19.1,46.5l-7.4,14.7l53.9,53.9c7.7,7.7,12,18,12,28.9s-4.3,21.2-12,28.9l-70.6,70.6c-7.7,7.7-18,12-28.9,12s-21.2-4.3-28.9-12l-53.9-53.9l-14.7,7.4c-14.4,7.3-30,13.7-46.5,19.1l-15.6,5.2v76.3c0,22.5-18.3,40.8-40.8,40.8h-99.8c-22.5,0-40.8-18.3-40.8-40.8v-76.2l-15.6-5.1c-15.7-5.2-31.3-11.7-46.4-19.3l-14.7-7.4l-53.9,53.9c-7.7,7.7-18,12-28.9,12c-10.9,0-21.2-4.3-28.9-12l-70.6-70.6c-7.7-7.7-12-18-12-28.9s4.3-21.2,12-28.9l53.9-53.9l-7.4-14.7c-7.3-14.4-13.7-30-19.1-46.5l-5.2-15.6H96.2c-22.5,0-40.8-18.3-40.8-40.8v-99.8c0-22.5,18.3-40.8,40.8-40.8h76.3l5.1-15.6c5.4-16.5,11.9-32.1,19.1-46.5l7.4-14.7l-53.9-53.9c-7.7-7.7-12-18-12-28.9c0-10.9,4.2-21.2,12-28.9l70.6-70.6c7.7-7.7,18-12,28.9-12c10.9,0,21.2,4.2,28.9,12l53.9,53.9l14.7-7.4c14.4-7.3,30-13.7,46.5-19.1l15.6-5.1V96.2c0-22.5,18.3-40.8,40.8-40.8h99.8c22.5,0,40.8,18.3,40.8,40.8v76.2l15.6,5.1c15.7,5.2,31.3,11.7,46.4,19.3l14.7,7.4l53.9-53.9c7.7-7.7,18-12,28.9-12s21.2,4.2,28.9,12l70.6,70.6c7.7,7.7,12,18,12,28.9c0,10.9-4.2,21.2-12,28.9l-53.9,53.9l7.4,14.7c7.3,14.4,13.7,30,19.1,46.5l5.2,15.6h76.3c22.5,0,40.8,18.3,40.8,40.8V549.9z"/></g>
</svg>